<?xml version="1.0" encoding="utf-8"?>
<!-- Generator: Adobe Illustrator 23.0.1, SVG Export Plug-In . SVG Version: 6.00 Build 0)  -->
<svg version="1.1" id="Layer_1" xmlns="http://www.w3.org/2000/svg" xmlns:xlink="http://www.w3.org/1999/xlink" x="0px" y="0px"
	 viewBox="0 0 233.7 233.7" style="enable-background:new 0 0 233.7 233.7;" xml:space="preserve">
<style type="text/css">
	.st0{fill:#0E2439;}
	.st1{opacity:0.85;fill:#FFFFFF;}
</style>
<path class="st0" d="M27.8,0h178c15.4,0,27.8,12.5,27.8,27.8v178c0,15.4-12.5,27.8-27.8,27.8h-178C12.5,233.7,0,221.2,0,205.9v-178
	C0,12.5,12.5,0,27.8,0z"/>
<path class="st1" d="M179.9,191.1c-4.7,0-9-1.2-12.8-3.4c-3.8-2.3-6.8-5.4-9-9.3c-2.2-3.9-3.3-8.1-3.3-12.7c0-4.6,1.1-8.8,3.3-12.7
	c2.2-3.8,5.2-6.9,9-9.1s8.1-3.3,12.8-3.3s9.1,1.1,12.9,3.3c3.9,2.2,7,5.3,9.2,9.1s3.3,8.1,3.3,12.7s-1.1,8.9-3.3,12.7
	c-2.2,3.9-5.3,7.1-9.2,9.3C189,190,184.6,191.1,179.9,191.1z M179.9,149.7c-3,0-5.8,0.7-8.2,2.1c-2.4,1.4-4.3,3.3-5.7,5.7
	s-2.1,5.2-2.1,8.1c0,3,0.7,5.8,2.1,8.3s3.3,4.5,5.7,5.9s5.1,2.1,8.2,2.1c3.2,0,6-0.7,8.5-2.1c2.5-1.4,4.4-3.4,5.8-5.9
	s2.1-5.3,2.1-8.3s-0.7-5.7-2.1-8.1c-1.4-2.4-3.3-4.4-5.8-5.7C185.9,150.4,183,149.7,179.9,149.7z"/>
<path class="st1" d="M39.5,191.1V63.2h39.8c4.5,0,9.2,0.6,14.1,1.7c4.8,1.1,9.3,3.4,13.4,6.8s7.5,8.6,10.1,15.6s3.9,16.6,3.9,28.5
	c0,11.2-1.3,20.5-3.8,27.5s-5.8,12.5-9.9,16.4c-4.1,3.8-8.5,6.5-13.3,8s-9.6,2.2-14.3,2.2H62.3V85h9.1v75.7h8.1
	c3.8,0,7.7-0.6,11.6-1.8c3.5-1.1,6.6-3,9.7-5.9c3-2.8,5.6-7.2,7.6-12.8c2.2-6.1,3.3-14.3,3.3-24.5c0-10.8-1.1-19.3-3.4-25.3
	c-2-5.4-4.5-9.4-7.4-11.7c-3.1-2.5-6.2-4.2-9.7-4.9c-4.2-1-8.2-1.4-12-1.4H48.6V182h28.9c5.1,0,10.4-0.5,15.8-1.6s10.7-3,15.7-5.7
	s9.6-6.7,13.6-11.7s7.2-11.4,9.5-19.1s3.5-17.1,3.5-28.1c0-13.5-1.7-24.7-5.1-33.1c-3.4-8.5-8.1-15.1-13.8-19.8
	c-5.8-4.6-12.3-7.8-19.4-9.5s-14.4-2.5-21.8-2.5H28.6v-9.2h47c8.1,0,16.1,0.9,23.9,2.8c8.5,2,16.2,5.8,23,11.2
	c7,5.6,12.6,13.5,16.6,23.5c3.9,9.7,5.8,21.6,5.8,36.5c0,11.9-1.3,22.2-3.9,30.7c-2.7,8.8-6.4,16.3-11.1,22.1
	c-4.7,6-10.3,10.7-16.4,14c-5.8,3.2-12,5.4-18.3,6.7c-6,1.2-11.9,1.8-17.5,1.8L39.5,191.1L39.5,191.1z"/>
<circle class="st1" cx="180" cy="165.8" r="7.2"/>
</svg>
