<?xml version="1.0" encoding="utf-8"?>
<!-- Generator: Adobe Illustrator 23.0.1, SVG Export Plug-In . SVG Version: 6.00 Build 0)  -->
<svg version="1.1" id="Layer_1" xmlns="http://www.w3.org/2000/svg" xmlns:xlink="http://www.w3.org/1999/xlink" x="0px" y="0px"
	 viewBox="0 0 755.6 162.3" style="enable-background:new 0 0 755.6 162.3;" xml:space="preserve">
<style type="text/css">
	.st0{fill:#C7CCD1;}
</style>
<path class="st0" d="M496.3,156.9c-4.7,0-9-1.2-12.8-3.4c-3.8-2.3-6.8-5.4-9-9.3c-2.2-3.9-3.3-8.1-3.3-12.7c0-4.6,1.1-8.8,3.3-12.7
	c2.2-3.8,5.2-6.9,9-9.1s8.1-3.3,12.8-3.3c4.7,0,9.1,1.1,12.9,3.3c3.9,2.2,7,5.3,9.2,9.1c2.2,3.8,3.3,8.1,3.3,12.7
	c0,4.6-1.1,8.9-3.3,12.7c-2.2,3.9-5.3,7.1-9.2,9.3C505.4,155.8,501,156.9,496.3,156.9z M496.3,115.5c-3,0-5.8,0.7-8.2,2.1
	c-2.4,1.4-4.3,3.3-5.7,5.7c-1.4,2.4-2.1,5.2-2.1,8.1c0,3,0.7,5.8,2.1,8.3s3.3,4.5,5.7,5.9c2.4,1.4,5.1,2.1,8.2,2.1
	c3.2,0,6-0.7,8.5-2.1c2.5-1.4,4.4-3.4,5.8-5.9s2.1-5.3,2.1-8.3s-0.7-5.7-2.1-8.1s-3.3-4.4-5.8-5.7
	C502.3,116.2,499.4,115.5,496.3,115.5z"/>
<path class="st0" d="M563.3,88.8c0.8-10.9,3.8-19.2,8.9-24.5c5.2-5.4,11.8-8.2,19.5-8.2c7.5,0,13.7,2.8,18.4,8.2
	c4.7,5.3,7.2,13.6,7.6,24.5H563.3z M591.6,65.3c-5.3,0-9.4,1.7-12.9,5.4c-1.9,1.9-3.3,4.6-4.4,7.9l-0.4,1.2h33.5l-0.3-1.1
	c-0.9-3.5-2.2-6.3-4-8.3C600.1,66.8,596.5,65.3,591.6,65.3z"/>
<path class="st0" d="M10.9,156.9V29h39.8c4.5,0,9.2,0.6,14.1,1.7c4.8,1.1,9.3,3.4,13.4,6.8c4.1,3.4,7.5,8.6,10.1,15.6
	s3.9,16.6,3.9,28.5c0,11.2-1.3,20.5-3.8,27.5s-5.8,12.5-9.9,16.4c-4.1,3.8-8.5,6.5-13.3,8s-9.6,2.2-14.3,2.2H33.7V50.8h9.1v75.7h8.1
	c3.8,0,7.7-0.6,11.6-1.8c3.5-1.1,6.6-3,9.7-5.9c3-2.8,5.6-7.2,7.6-12.8c2.2-6.1,3.3-14.3,3.3-24.5c0-10.8-1.1-19.3-3.4-25.3
	c-2-5.4-4.5-9.4-7.4-11.7c-3.1-2.5-6.2-4.2-9.7-4.9c-4.2-1-8.2-1.4-12-1.4H20v109.6h28.9c5.1,0,10.4-0.5,15.8-1.6s10.7-3,15.7-5.7
	s9.6-6.7,13.6-11.7s7.2-11.4,9.5-19.1s3.5-17.1,3.5-28.1c0-13.5-1.7-24.7-5.1-33.1c-3.4-8.5-8.1-15.1-13.8-19.8
	c-5.8-4.6-12.3-7.8-19.4-9.5s-14.4-2.5-21.8-2.5H0V7.5h47c8.1,0,16.1,0.9,23.9,2.8c8.5,2,16.2,5.8,23,11.2
	c7,5.6,12.6,13.5,16.6,23.5c3.9,9.7,5.8,21.6,5.8,36.5c0,11.9-1.3,22.2-3.9,30.7c-2.7,8.8-6.4,16.3-11.1,22.1
	c-4.7,6-10.3,10.7-16.4,14c-5.8,3.2-12,5.4-18.3,6.7c-6,1.2-11.9,1.8-17.5,1.8L10.9,156.9L10.9,156.9z"/>
<polygon class="st0" points="215.1,162.3 215.1,135.6 154.7,135.6 154.7,87.5 203.7,87.5 203.7,74.7 154.7,74.7 154.7,29.1 
	215.4,29.1 218.6,38.3 163.8,38.3 163.8,65.6 212.8,65.6 212.8,96.6 163.8,96.6 163.8,126.4 224.2,126.4 224.2,162.3 "/>
<polygon class="st0" points="273.5,156.9 224.5,16.6 140.9,16.6 140.9,147.8 202.4,147.8 202.4,156.9 131.8,156.9 131.8,7.5 
	230.9,7.5 279.9,147.8 291.7,147.8 337.5,16.6 323.6,16.6 286.1,127.2 243.5,0 253.1,0 286.2,98.7 317.1,7.5 350.3,7.5 298.2,156.9 
	"/>
<path class="st0" d="M717.3,156.9c-12.5,0-22.6-3.6-30.1-10.6c-7.6-7.1-11.6-16.5-11.6-27.2V65.9h-23.4V36.1h23.4V14.5l31.7-3.8
	v25.5h36.6l-5.7,34.7H729l4.2-25.6h-35V20.9l-13.5,1.6v22.7h-23.4v11.6h23.4v62.3c0,8.2,2.9,15.1,8.7,20.5s13.8,8.1,23.9,8.1
	c4,0,8.4-0.6,13.1-1.7c4.7-1.2,8.8-2.8,12.1-5l0.7-0.5l-6-9.8l-0.7,0.4c-2.7,1.4-5.6,2.6-8.8,3.4c-3.1,0.9-6.5,1.3-10.2,1.3
	c-7.1,0-12.1-1.5-15-4.4s-4.4-7.2-4.4-12.6v-62h20.3l-1.5,9.1h-9.7v52.9c0,2.9,0.6,5,1.7,6.2c0.6,0.6,3.2,1.7,8.6,1.7
	c2.9,0,5.5-0.3,7.8-1c2.5-0.7,4.8-1.6,7-2.7l8.3-4.3l15,24.7l-8.1,5.3c-4.2,2.7-9.2,4.8-15,6.2C727.2,156.2,722,156.9,717.3,156.9z"
	/>
<path class="st0" d="M395.9,158.8c-9.7,0-19-1.6-27.5-4.6c-8.8-3.2-16.5-7.9-23-14l-6.9-6.6l21.1-24.1l7.6,7.2
	c3.5,3.4,7.7,6.1,12.4,8.2c4.5,2,10.3,3,17,3c4.3,0,8.3-0.7,12.2-2.2c3.3-1.3,5.9-3.1,7.9-5.6c1.7-2.1,2.5-4.9,2.5-8.6
	c0-2.8-0.5-5.1-1.4-6.8c-0.5-1-1.9-2.6-5.2-4.5c-3.6-2.1-9-4.1-16.1-6.2c-8.5-2.5-16.3-5.3-23-8.5c-7.7-3.6-13.8-8.4-18.4-14.2
	c-5-6.3-7.5-14.2-7.5-23.5c0-8,2.2-15.4,6.7-21.9c4.3-6.3,10.3-11.3,17.9-14.9c7.3-3.5,15.8-5.2,25.3-5.2c9.8,0,18.5,1.5,26,4.3
	c7.3,2.8,14.2,7,20.4,12.3l7.8,6.7l-10.3,11.3h0.1L426,57.2c-3-1.2-6.1-2.4-9.2-3.4l3.5-3.8l0,0l18.3-20l-0.7-0.6
	c-5.4-4.6-11.4-8.2-17.7-10.7c-6.4-2.5-14-3.7-22.7-3.7c-8.1,0-15.3,1.5-21.4,4.3c-6,2.7-10.8,6.7-14.2,11.7s-5.1,10.6-5.1,16.8
	c0,7.1,1.9,13.1,5.6,17.8c3.6,4.6,8.7,8.5,15.1,11.6c6.3,3,13.6,5.7,21.6,8c7.7,2.2,13.8,4.6,18.1,7c4.2,2.4,7.1,5.1,8.7,8.1
	s2.4,6.8,2.4,11.1c0,5.8-1.5,10.6-4.5,14.3c-3,3.7-7,6.6-11.8,8.4c-4.8,1.8-10,2.8-15.4,2.8c-8,0-14.9-1.3-20.6-3.7
	c-5.7-2.5-10.8-5.8-15.1-9.9l-0.7-0.6l-9.1,10.4l0.6,0.6c5.5,5.3,12.2,9.3,19.8,12.1c7.6,2.7,15.8,4.1,24.5,4.1
	c9.9,0,18.4-1.6,25.2-4.8c6.9-3.2,12.2-7.8,15.9-13.5c3.6-5.7,5.5-12.3,5.5-19.7c0-8.5-1.9-15.4-5.6-20.4s-8.5-9-14.3-11.8
	c-5.7-2.7-11.8-5-18.1-6.8c-8.5-2.5-15.3-5-20.3-7.3c-4.9-2.3-8.4-4.9-10.4-7.7c-2-2.7-3-6.1-3-9.9c0-4.5,1.2-8.3,3.7-11.2
	s5.8-5.2,9.8-6.7c4.1-1.5,8.6-2.3,13.4-2.3c5.5,0,10.9,0.9,16.2,2.8c1.7,0.6,3.5,1.3,5.2,2.2l-6.4,7c-0.6-0.3-1.2-0.5-1.7-0.7
	c-4.3-1.5-8.8-2.3-13.2-2.3c-3.8,0-7.2,0.6-10.3,1.7c-2.6,0.9-4.5,2.2-5.9,3.9c-0.4,0.5-1.5,1.8-1.5,5.4c0,2.5,0.7,3.8,1.3,4.5
	c0.6,0.9,2.4,2.7,7,4.9c4.5,2.2,10.9,4.5,18.9,6.8c6.8,1.9,13.4,4.4,19.5,7.3c7.2,3.4,13.2,8.3,17.7,14.6c4.9,6.7,7.3,15.3,7.3,25.8
	c0,9.1-2.3,17.4-6.9,24.6c-4.6,7.2-11.2,12.9-19.7,16.8C416.9,156.9,407.1,158.8,395.9,158.8z"/>
<path class="st0" d="M621.8,113.2l-8.2,5.6c-3.8,2.6-7.3,4.5-10.6,5.7c-2.9,1.1-6.4,1.6-10.4,1.6c-3.7,0-7.1-0.8-10.2-2.5
	c-2.8-1.6-5.1-4-7-7.6c-0.7-1.4-1.3-2.9-1.8-4.6l-0.3-1.1h65.4l0.6-9.4c0.1-1,0.1-2.3,0.2-3.7c0.1-1.5,0.1-3.2,0.1-5
	c0-11.2-1.8-21.1-5.4-29.4c-3.8-8.9-9.4-15.9-16.7-20.9c-7.4-5-16.2-7.6-26.3-7.6c-10.3,0-19.6,2.8-27.5,8.3
	c-7.7,5.4-13.8,12.8-18,22.2c-4.1,9-6.2,19.4-6.2,30.8c0,11.6,2,22,6.1,31c4.2,9.4,10.5,16.9,18.6,22.2s17.8,8,28.9,8
	c6.5,0,13.3-1.2,20-3.4c2.7-0.9,5.4-2,8-3.3l-5.3-7.6c-1.8,0.8-3.7,1.6-5.6,2.2c-5.8,2-11.6,3-17.1,3c-9.2,0-17.3-2.2-23.9-6.5
	c-6.6-4.3-11.7-10.5-15.2-18.3s-5.3-16.9-5.3-27.2c0-10.1,1.8-19.2,5.4-27c3.6-7.8,8.6-14,14.9-18.5c6.4-4.4,13.9-6.7,22.3-6.7
	c8.2,0,15.3,2,21.1,6s10.4,9.7,13.5,16.9s4.6,15.9,4.6,25.8c0,1.7,0,3.2-0.1,4.6s-0.1,2.5-0.2,3.5l-0.1,0.8H563
	c0.3,7.7,1.7,14.1,4.3,19.1c2.7,5.1,6.3,8.9,10.7,11.4c4.4,2.4,9.3,3.7,14.5,3.7c5.1,0,9.6-0.7,13.6-2.2s8.2-3.8,12.6-6.8l0.7-0.5
	l15,21.5l7.2-5.5L621.8,113.2z"/>
<circle class="st0" cx="496.4" cy="131.6" r="7.2"/>
</svg>
