<?xml version="1.0" encoding="utf-8"?>
<!-- Generator: Adobe Illustrator 23.0.1, SVG Export Plug-In . SVG Version: 6.00 Build 0)  -->
<svg version="1.1" id="Layer_1" xmlns="http://www.w3.org/2000/svg" xmlns:xlink="http://www.w3.org/1999/xlink" x="0px" y="0px"
	 viewBox="0 0 578.3 578.3" style="enable-background:new 0 0 578.3 578.3;" xml:space="preserve">
<style type="text/css">
	.st0{fill:#0E2439;}
	.st1{opacity:0.85;fill:#F2F3F4;enable-background:new    ;}
</style>
<rect class="st0" width="578.3" height="578.3"/>
<g>
	<g>
		<g>
			<path class="st1" d="M94.7,248.2c-4.6-3.7-9.9-6.3-15.7-7.7c-5.3-1.3-10.8-1.9-16.3-1.9H30.6v6.3h32c5.1,0,10,0.5,14.9,1.7
				c4.9,1.2,9.3,3.4,13.3,6.5c3.9,3.2,7.1,7.7,9.4,13.5c2.3,5.7,3.5,13.4,3.5,22.6c0,7.5-0.8,13.9-2.4,19.2
				c-1.6,5.3-3.8,9.7-6.5,13.1s-5.9,6.2-9.3,8c-3.4,1.8-7,3.1-10.7,3.9c-3.7,0.8-7.3,1.1-10.8,1.1H44.2v-75h20.9
				c2.6,0,5.3,0.3,8.2,1c2.4,0.5,4.5,1.7,6.6,3.4c2,1.6,3.7,4.3,5.1,8c1.5,4.1,2.3,9.9,2.3,17.3c0,7-0.8,12.6-2.3,16.8
				c-1.4,3.9-3.1,6.9-5.2,8.8c-2.1,1.9-4.2,3.2-6.6,4c-2.6,0.8-5.3,1.2-7.9,1.2h-5.5v-51.8h-6.2v58.2h11.7c3.2,0,6.5-0.5,9.8-1.5
				c3.3-1.1,6.3-2.9,9.1-5.5c2.8-2.7,5.1-6.4,6.8-11.2c1.7-4.8,2.6-11.1,2.6-18.8c0-8.1-0.9-14.7-2.7-19.5
				c-1.8-4.8-4.1-8.3-6.9-10.7c-2.8-2.4-5.9-3.9-9.2-4.7s-6.5-1.2-9.6-1.2H38v87.5l26.1-0.1c3.9,0,7.9-0.4,12-1.2
				c4.3-0.9,8.5-2.4,12.5-4.6c4.2-2.3,8-5.5,11.2-9.6c3.2-4,5.8-9.1,7.6-15.1c1.8-5.8,2.7-12.8,2.7-20.9c0-10.2-1.3-18.4-4-25
				C103.3,257.4,99.5,252,94.7,248.2z"/>
			<polygon class="st1" points="247.5,238.6 226.4,301 203.8,233.5 197.2,233.5 226.3,320.5 251.9,244.9 261.4,244.9 230.1,334.6 
				222,334.6 188.5,238.6 120.7,238.6 120.7,340.7 169,340.7 169,334.5 126.9,334.5 126.9,244.8 184.1,244.8 217.6,340.8 
				234.6,340.8 270.2,238.6 			"/>
			<path class="st1" d="M322.5,282c-4.1-2-8.6-3.7-13.3-5c-5.4-1.6-9.8-3.2-12.9-4.7c-3.2-1.6-4.4-2.8-4.8-3.4
				c-0.4-0.5-0.9-1.4-0.9-3.1c0-2.5,0.7-3.4,1-3.7c0.9-1.2,2.2-2.1,4-2.7c2.1-0.8,4.4-1.2,7-1.2c3,0,6.1,0.6,9,1.6
				c0.4,0.2,0.8,0.3,1.2,0.5l4.4-4.8c-1.2-0.6-2.4-1.1-3.6-1.5c-3.6-1.3-7.3-1.9-11.1-1.9c-3.3,0-6.4,0.6-9.2,1.6
				c-2.7,1-5,2.6-6.7,4.6s-2.5,4.6-2.5,7.7c0,2.6,0.7,5,2.1,6.8c1.4,1.9,3.7,3.7,7.1,5.3c3.4,1.6,8.1,3.3,13.9,5
				c4.3,1.3,8.5,2.9,12.4,4.7c4,1.9,7.3,4.7,9.8,8.1c2.5,3.5,3.8,8.2,3.8,14c0,5.1-1.3,9.6-3.8,13.5c-2.6,3.9-6.2,7-10.9,9.2
				c-4.6,2.2-10.4,3.3-17.2,3.3c-6,0-11.6-1-16.8-2.8c-5.2-1.9-9.7-4.7-13.5-8.3l-0.4-0.4l6.2-7.1l0.5,0.4c2.9,2.8,6.4,5.1,10.3,6.8
				c3.9,1.6,8.6,2.5,14.1,2.5c3.7,0,7.2-0.7,10.5-1.9s6-3.2,8.1-5.7c2.1-2.6,3.1-5.8,3.1-9.8c0-2.9-0.5-5.5-1.6-7.6
				c-1-2-3-3.9-5.9-5.5c-3-1.7-7.1-3.3-12.4-4.8c-5.5-1.6-10.5-3.4-14.8-5.5c-4.3-2.1-7.8-4.8-10.3-7.9c-2.5-3.2-3.8-7.3-3.8-12.2
				c0-4.3,1.2-8.1,3.5-11.5c2.3-3.4,5.6-6.2,9.7-8c4.1-1.9,9.1-2.9,14.6-2.9c5.9,0,11.1,0.8,15.5,2.5c4.3,1.7,8.4,4.2,12.1,7.3
				l0.5,0.4L318,267.6l-2.4,2.6c2.1,0.7,4.2,1.5,6.3,2.3l10.6-11.5h-0.1l7-7.7l-5.3-4.6c-4.3-3.6-9-6.5-14-8.4
				c-5.1-1.9-11.1-2.9-17.8-2.9c-6.5,0-12.3,1.2-17.3,3.6c-5.2,2.5-9.3,5.9-12.2,10.2c-3.1,4.5-4.6,9.5-4.6,15
				c0,6.4,1.7,11.8,5.1,16.1c3.2,4,7.3,7.2,12.6,9.7c4.6,2.2,9.9,4.1,15.7,5.8c4.8,1.4,8.5,2.8,11,4.2c2.3,1.3,3.3,2.4,3.6,3.1
				c0.7,1.2,1,2.8,1,4.7c0,2.5-0.5,4.5-1.7,5.9c-1.4,1.7-3.1,2.9-5.4,3.8c-2.6,1-5.4,1.5-8.3,1.5c-4.6,0-8.5-0.7-11.6-2.1
				c-3.2-1.4-6.1-3.3-8.5-5.6l-5.2-4.9l-14.4,16.5l4.7,4.5c4.4,4.2,9.7,7.4,15.7,9.6c5.8,2,12.2,3.1,18.8,3.1
				c7.7,0,14.4-1.3,20.1-3.9c5.8-2.7,10.4-6.6,13.5-11.5c3.1-4.9,4.7-10.6,4.7-17.1c0-7.1-1.6-13-5-17.6
				C331.5,287.7,327.4,284.3,322.5,282z"/>
			<path class="st1" d="M369.3,318.7c-2.1,0.3-3.8,2-4.1,4.1c-0.6,3.3,2.3,6.1,5.6,5.6c2.1-0.3,3.8-2,4.1-4.1
				C375.5,321,372.6,318.2,369.3,318.7z"/>
			<polygon class="st1" points="142.6,299.6 176.1,299.6 176.1,278.4 142.6,278.4 142.6,259.7 180.1,259.7 177.9,253.4 136.4,253.4 
				136.4,284.5 169.9,284.5 169.9,293.3 136.4,293.3 136.4,326.2 177.7,326.2 177.7,344.5 183.9,344.5 183.9,320 142.6,320 			"/>
			<path class="st1" d="M450,314.6c-2.5,1.8-4.9,3.1-7.2,3.9c-2,0.8-4.4,1.1-7.1,1.1c-2.6,0-4.9-0.5-7-1.7c-1.9-1.1-3.5-2.7-4.8-5.2
				c-0.4-0.9-0.9-1.9-1.2-3.1l-0.2-0.8h44.7l0.4-6.4c0-0.7,0-1.5,0.1-2.5c0.1-1,0.1-2.2,0.1-3.4c0-7.7-1.2-14.4-3.7-20.1
				c-2.6-6.1-6.4-10.9-11.4-14.3c-5.1-3.4-11.1-5.2-18-5.2c-7,0-13.4,1.9-18.8,5.7c-5.3,3.7-9.4,8.8-12.3,15.2
				c-2.8,6.2-4.2,13.3-4.2,21.1c0,7.9,1.4,15,4.2,21.2c2.9,6.4,7.1,11.5,12.7,15.2s12.2,5.5,19.8,5.5c4.5,0,9.1-0.8,13.7-2.3
				c1.9-0.7,3.7-1.4,5.5-2.3l-3.6-5.2c-1.2,0.5-2.5,1.1-3.8,1.5c-4,1.4-7.9,2.1-11.7,2.1c-6.2,0-11.8-1.5-16.3-4.4
				c-4.5-2.9-8-7.2-10.4-12.5c-2.4-5.3-3.6-11.6-3.6-18.6c0-6.9,1.2-13.2,3.7-18.5c2.5-5.4,5.9-9.6,10.2-12.7
				c4.4-3,9.6-4.6,15.3-4.6c5.6,0,10.4,1.4,14.4,4.1c3.9,2.8,7.1,6.7,9.2,11.6c2.1,4.9,3.1,10.8,3.1,17.6c0,1.1,0,2.1-0.1,3.1
				c0,1,0,1.7-0.1,2.4l-0.1,0.5h-45.9c0.2,5.3,1.1,9.7,2.9,13.1c1.8,3.5,4.3,6.1,7.3,7.8c3,1.6,6.3,2.5,9.9,2.5
				c3.5,0,6.6-0.4,9.3-1.5s5.6-2.6,8.6-4.7l0.5-0.3l10.3,14.7l4.7-3.8l-13.5-19.6L450,314.6z"/>
			<path class="st1" d="M537.3,314.7l-5.7,2.9c-1.5,0.7-3.1,1.3-4.8,1.8c-1.5,0.5-3.3,0.7-5.3,0.7c-3.7,0-5.5-0.8-5.9-1.2
				c-0.8-0.8-1.2-2.2-1.2-4.2v-36.2h6.6l1-6.2h-13.9v42.4c0,3.7,1,6.6,3,8.6s5.4,3,10.3,3c2.6,0,4.9-0.3,7-0.9
				c2.2-0.5,4.2-1.3,6-2.3l0.5-0.3l4.1,6.7l-0.5,0.3c-2.3,1.5-5.1,2.6-8.3,3.4c-3.3,0.8-6.3,1.2-9,1.2c-6.9,0-12.3-1.8-16.3-5.5
				c-4-3.7-6-8.4-6-14v-42.6h-16v-7.9h16v-15.5l9.2-1.1v16.6H532l-2.9,17.5h6.3l3.9-23.7h-25v-17.4l-21.7,2.6v14.8h-16v20.4h16V315
				c0,7.3,2.7,13.7,7.9,18.6c5.1,4.7,12.1,7.2,20.6,7.2c3.2,0,6.8-0.5,10.4-1.4c4-0.9,7.4-2.4,10.3-4.2l5.8-3.6L537.3,314.7z"/>
			<path class="st1" d="M378.8,308.5c-2.6-1.5-5.6-2.3-8.8-2.3c-3.3,0-6.2,0.8-8.8,2.3c-2.6,1.5-4.7,3.6-6.2,6.2
				c-1.5,2.7-2.3,5.6-2.3,8.7c0,3.2,0.8,6,2.3,8.7c1.5,2.7,3.6,4.8,6.2,6.4c2.6,1.5,5.6,2.3,8.8,2.3c3.2,0,6.2-0.7,8.8-2.3
				c2.7-1.5,4.8-3.7,6.3-6.4c1.5-2.6,2.2-5.5,2.3-8.7c0-3.2-0.8-6.1-2.3-8.7C383.6,312.1,381.5,310,378.8,308.5z M379.8,329
				c-1,1.7-2.3,3-4,4c-1.7,0.9-3.6,1.4-5.8,1.4c-2.1,0-4-0.4-5.6-1.4c-1.6-0.9-3-2.3-3.9-4c-0.9-1.7-1.4-3.6-1.4-5.7
				c0-1.9,0.4-3.9,1.4-5.5s2.3-2.9,3.9-3.9c1.6-0.9,3.5-1.4,5.6-1.4s4.1,0.4,5.8,1.4c1.7,0.9,3,2.3,4,3.9c0.9,1.6,1.4,3.4,1.4,5.5
				S380.8,327.3,379.8,329z"/>
		</g>
		<path class="st1" d="M447.8,277.4c-3.2-3.7-7.5-5.6-12.6-5.6c-5.2,0-9.7,1.9-13.3,5.6c-3.5,3.7-5.6,9.3-6.1,16.8H453
			C452.7,286.7,451,281,447.8,277.4z M423,288l0.3-0.8c0.7-2.3,1.7-4.1,3-5.4c2.4-2.5,5.2-3.7,8.8-3.7c3.4,0,5.8,1,7.9,3.5
			c1.2,1.4,2.1,3.3,2.8,5.6l0.2,0.8H423z"/>
	</g>
</g>
</svg>
