<?xml version="1.0" encoding="utf-8"?>
<!-- Generator: Adobe Illustrator 23.0.1, SVG Export Plug-In . SVG Version: 6.00 Build 0)  -->
<svg version="1.1" id="Layer_1" xmlns="http://www.w3.org/2000/svg" xmlns:xlink="http://www.w3.org/1999/xlink" x="0px" y="0px"
	 viewBox="0 0 578.3 578.3" style="enable-background:new 0 0 578.3 578.3;" xml:space="preserve">
<style type="text/css">
	.st0{fill:#5534C3;}
	.st1{fill:#0E2439;}
	.st2{opacity:0.85;enable-background:new    ;}
	.st3{fill:#FFFFFF;}
</style>
<path class="st0" d="M527.1,580h-477C21.9,580-1,557.1-1,528.8V51.2C-1,22.9,21.9,0,50.2,0h477c28.3,0,51.2,22.9,51.2,51.2v477.7
	C578.3,557.1,555.4,580,527.1,580z"/>
<line class="st1" x1="578.3" y1="578.3" x2="0" y2="578.3"/>
<line class="st1" x1="0" y1="0" x2="578.3" y2="0"/>
<g class="st2">
	<path class="st3" d="M118.4,322v-65.3H134c5.3,0,9.5,0.4,12.7,1.3s6,2.5,8.2,4.9c2.3,2.4,3.9,5.7,4.8,9.9c0.9,4.2,1.4,10.2,1.4,18
		c0,7.7-0.9,14-2.8,18.7c-1.9,4.7-4.7,8-8.5,9.8c-3.8,1.8-9.1,2.7-16,2.7H118.4z M146.5,308.8c1.5-1.7,2.6-4.1,3.1-7.1
		c0.6-3,0.8-7.1,0.8-12.4c0-5.2-0.2-9.3-0.7-12.3s-1.4-5.4-2.9-7.1c-1.5-1.8-3.3-2.9-5.5-3.4c-2.2-0.5-5.3-0.7-9.4-0.7h-3.2V313h3
		c3.9,0,6.9-0.3,9.1-0.8C143.1,311.6,145,310.5,146.5,308.8z"/>
	<path class="st3" d="M170.4,322v-65.3h38.2v9.4h-27.8v18.1H206v9h-25.2v19.4h28.1v9.4H170.4z"/>
	<path class="st3" d="M229.8,322l-14.5-65.3h11l12.3,56h2.1l11.8-56h10.7l-14,65.3H229.8z"/>
	<path class="st3" d="M268.4,274.2c0-12.3,7.4-18.4,22.1-18.4c5.2,0,11.1,1.2,17.8,3.5l-2.3,9.1c-6.8-2.1-12.1-3.2-16-3.2
		s-6.7,0.6-8.4,1.9c-1.7,1.3-2.6,3.7-2.6,7c0,2.3,1,4.2,2.9,5.7c1.9,1.6,5.2,2.9,9.8,4.1c7,1.9,11.8,4.3,14.4,7.2
		c2.6,2.9,3.9,7.3,3.9,13.1c0,12.6-7.5,18.8-22.5,18.8c-5,0-11.3-1.1-18.8-3.2l2.1-9.5c0,0.1,1,0.4,3.1,0.9c6.4,1.7,11.5,2.5,15,2.5
		c3.6,0,6.2-0.9,8-2.7s2.6-4.1,2.6-6.8s-0.7-4.8-2.2-6.3s-4.2-2.8-8.2-3.9c-7.2-2-12.4-4.5-15.6-7.4
		C270,283.7,268.4,279.5,268.4,274.2z"/>
	<path class="st3" d="M374.2,280.1c3.6-4.2,8.6-6.2,15-6.2s11.3,1.9,14.8,5.6c3.5,3.8,5.3,9.3,5.4,16.5l-0.4,7.4h-29.1
		c0.6,7.2,4.2,10.8,10.8,10.8c4.6,0,9.4-0.8,14.6-2.5l2.1,8.7c-2.1,0.7-4.9,1.4-8.3,1.9c-3.4,0.6-6.2,0.8-8.4,0.8
		c-14.6,0-21.8-8.2-21.8-24.7C368.8,290.3,370.6,284.2,374.2,280.1z M389.5,283.1c-3.1,0-5.5,0.9-7,2.7c-1.6,1.8-2.4,4.9-2.6,9.1
		h18.4C398.3,287.1,395.4,283.1,389.5,283.1z"/>
	<path class="st3" d="M419.7,283.8v-9.2h8.1v-11.3l10.3-1v12.4h18.6v9.2H438v19.9c0,3.7,0.4,6.2,1.1,7.7s2.2,2.2,4.5,2.2
		c3.9,0,8.5-0.6,13.8-1.9l1.7,8.9c-5.8,1.5-10.9,2.3-15.5,2.3c-6.4,0-10.6-1.4-12.7-4.3s-3.1-7.8-3.1-15v-19.9H419.7z"/>
	<path class="st3" d="M331.5,314.8L331.5,314.8c0-4,3.2-7.2,7.2-7.2h0.1c4,0,7.2,3.2,7.2,7.2l0,0c0,4-3.2,7.2-7.2,7.2h-0.1
		C334.7,322,331.5,318.8,331.5,314.8z"/>
</g>
</svg>
