<?xml version="1.0" encoding="utf-8"?>
<!-- Generator: Adobe Illustrator 23.0.1, SVG Export Plug-In . SVG Version: 6.00 Build 0)  -->
<svg version="1.1" id="Layer_1" xmlns="http://www.w3.org/2000/svg" xmlns:xlink="http://www.w3.org/1999/xlink" x="0px" y="0px"
	 viewBox="0 0 578.3 578.3" style="enable-background:new 0 0 578.3 578.3;" xml:space="preserve">
<style type="text/css">
	.st0{fill:#1D2741;}
	.st1{enable-background:new    ;}
	.st2{fill:#FFFFFF;}
</style>
<rect class="st0" width="578.3" height="578.3"/>
<g class="st1">
	<path class="st2" d="M25.1,260.2V80.4h43c14.6,0,26.2,1.1,35,3.6c8.8,2.5,16.5,6.9,22.6,13.5c6.3,6.6,10.7,15.7,13.2,27.3
		c2.5,11.6,3.9,28.1,3.9,49.6c0,21.2-2.5,38.6-7.7,51.5c-5.2,12.9-12.9,22-23.4,27s-25.1,7.4-44.1,7.4H25.1z M102.5,223.8
		c4.1-4.7,7.2-11.3,8.5-19.6c1.7-8.3,2.2-19.6,2.2-34.1c0-14.3-0.6-25.6-1.9-33.9s-3.9-14.9-8-19.6c-4.1-5-9.1-8-15.1-9.4
		c-6.1-1.4-14.6-1.9-25.9-1.9h-8.8v130h8.3c10.7,0,19-0.8,25.1-2.2C93.1,231.6,98.3,228.5,102.5,223.8z"/>
	<path class="st2" d="M168.3,260.2V80.4h105.2v25.9h-76.6v49.8h69.4v24.8h-69.4v53.4h77.4v25.9H168.3z"/>
	<path class="st2" d="M331.8,260.2L291.9,80.4h30.3l33.9,154.2h5.8l32.5-154.2h29.5l-38.6,179.8H331.8z"/>
	<path class="st2" d="M438.1,128.6c0-33.9,20.4-50.7,60.9-50.7c14.3,0,30.6,3.3,49,9.6l-6.3,25.1c-18.7-5.8-33.3-8.8-44.1-8.8
		c-10.7,0-18.4,1.7-23.1,5.2c-4.7,3.6-7.2,10.2-7.2,19.3c0,6.3,2.8,11.6,8,15.7c5.2,4.4,14.3,8,27,11.3
		c19.3,5.2,32.5,11.8,39.7,19.8c7.2,8,10.7,20.1,10.7,36.1c0,34.7-20.7,51.8-62,51.8c-13.8,0-31.1-3-51.8-8.8l5.8-26.2
		c0,0.3,2.8,1.1,8.5,2.5c17.6,4.7,31.7,6.9,41.3,6.9c9.9,0,17.1-2.5,22-7.4s7.2-11.3,7.2-18.7s-1.9-13.2-6.1-17.3
		c-4.1-4.1-11.6-7.7-22.6-10.7c-19.8-5.5-34.1-12.4-43-20.4C442.5,154.7,438.1,143.2,438.1,128.6z"/>
	<path class="st2" d="M318.9,383.9c9.9-11.6,23.7-17.1,41.3-17.1c17.6,0,31.1,5.2,40.8,15.4c9.6,10.5,14.6,25.6,14.9,45.4l-1.1,20.4
		h-80.1c1.7,19.8,11.6,29.7,29.7,29.7c12.7,0,25.9-2.2,40.2-6.9l5.8,24c-5.8,1.9-13.5,3.9-22.9,5.2c-9.4,1.7-17.1,2.2-23.1,2.2
		c-40.2,0-60-22.6-60-68C304,411.9,309,395.1,318.9,383.9z M361,392.1c-8.5,0-15.1,2.5-19.3,7.4c-4.4,5-6.6,13.5-7.2,25.1h50.7
		C385.3,403.1,377.3,392.1,361,392.1z"/>
	<path class="st2" d="M444.2,394v-25.3h22.3v-31.1l28.4-2.8V369h51.2v25.3h-51.5v54.8c0,10.2,1.1,17.1,3,21.2
		c1.9,4.1,6.1,6.1,12.4,6.1c10.7,0,23.4-1.7,38-5.2l4.7,24.5c-16,4.1-30,6.3-42.7,6.3c-17.6,0-29.2-3.9-35-11.8
		c-5.8-8-8.5-21.5-8.5-41.3V394L444.2,394L444.2,394z"/>
	<path class="st2" d="M201.3,479.4L201.3,479.4c0-11,8.8-19.8,19.8-19.8h0.3c11,0,19.8,8.8,19.8,19.8l0,0c0,11-8.8,19.8-19.8,19.8
		h-0.3C210.1,499.2,201.3,490.4,201.3,479.4z"/>
</g>
</svg>
