<?xml version="1.0" encoding="utf-8"?>
<!-- Generator: Adobe Illustrator 23.0.1, SVG Export Plug-In . SVG Version: 6.00 Build 0)  -->
<svg version="1.1" id="Layer_1" xmlns="http://www.w3.org/2000/svg" xmlns:xlink="http://www.w3.org/1999/xlink" x="0px" y="0px"
	 viewBox="0 0 578.3 162.3" style="enable-background:new 0 0 578.3 162.3;" xml:space="preserve">
<style type="text/css">
	.st0{fill:#F2F3F4;}
	.st1{opacity:0.85;fill:#F2F3F4;enable-background:new    ;}
</style>
<g>
	<g>
		<path class="st0" d="M376.8,105.7c-1.7-1-3.7-1.4-5.8-1.4c-2.1,0-4,0.5-5.6,1.4c-1.6,1-2.9,2.3-3.9,3.9s-1.4,3.6-1.4,5.5
			c0,2.1,0.5,4,1.4,5.7s2.3,3.1,3.9,4c1.6,1,3.5,1.4,5.6,1.4c2.2,0,4.1-0.5,5.8-1.4c1.7-1,3-2.3,4-4s1.4-3.6,1.4-5.7
			s-0.5-3.9-1.4-5.5C379.8,108,378.5,106.6,376.8,105.7z M371.8,120.2c-3.3,0.5-6.2-2.3-5.6-5.6c0.3-2.1,2-3.8,4.1-4.1
			c3.3-0.5,6.2,2.3,5.6,5.6C375.6,118.2,373.9,119.9,371.8,120.2z"/>
		<path class="st0" d="M444,73.4c-2.1-2.5-4.5-3.5-7.9-3.5c-3.6,0-6.4,1.2-8.8,3.7c-1.3,1.3-2.3,3.1-3,5.4l-0.3,0.8h23l-0.2-0.8
			C446.1,76.7,445.2,74.8,444,73.4z"/>
		<path class="st1" d="M0,14.8v132.8c0,8.1,6.6,14.8,14.8,14.8h548.8c8.1,0,14.8-6.6,14.8-14.8V14.8c0-8.1-6.6-14.8-14.8-14.8H14.8
			C6.6,0,0,6.6,0,14.8z M108.4,102c-1.8,6-4.4,11.1-7.6,15.1c-3.2,4.1-7,7.3-11.2,9.6c-4,2.2-8.2,3.7-12.5,4.6
			c-4.1,0.8-8.1,1.2-12,1.2L39,132.6V45.1h27.2c3.1,0,6.3,0.4,9.6,1.2c3.3,0.8,6.4,2.3,9.2,4.7s5.1,5.9,6.9,10.7s2.7,11.4,2.7,19.5
			c0,7.7-0.9,14-2.6,18.8s-4,8.5-6.8,11.2c-2.8,2.6-5.8,4.4-9.1,5.5c-3.3,1-6.6,1.5-9.8,1.5H54.6V60h6.2v51.8h5.5
			c2.6,0,5.3-0.4,7.9-1.2c2.4-0.8,4.5-2.1,6.6-4s3.8-4.9,5.2-8.8c1.5-4.2,2.3-9.8,2.3-16.8c0-7.4-0.8-13.2-2.3-17.3
			c-1.4-3.7-3.1-6.4-5.1-8c-2.1-1.7-4.2-2.9-6.6-3.4c-2.9-0.7-5.6-1-8.2-1H45.2v75H65c3.5,0,7.1-0.3,10.8-1.1
			c3.7-0.8,7.3-2.1,10.7-3.9c3.4-1.8,6.6-4.6,9.3-8c2.7-3.4,4.9-7.8,6.5-13.1c1.6-5.3,2.4-11.7,2.4-19.2c0-9.2-1.2-16.9-3.5-22.6
			c-2.3-5.8-5.5-10.3-9.4-13.5c-4-3.1-8.4-5.3-13.3-6.5s-9.8-1.7-14.9-1.7h-32v-6.3h32.1c5.5,0,11,0.6,16.3,1.9
			c5.8,1.4,11.1,4,15.7,7.7c4.8,3.8,8.6,9.2,11.4,16.1c2.7,6.6,4,14.8,4,25C111.1,89.2,110.2,96.2,108.4,102z M184.9,136.3h-6.2V118
			h-41.3V85.1h33.5v-8.8h-33.5V45.2h41.5l2.2,6.3h-37.5v18.7h33.5v21.2h-33.5v20.4h41.3V136.3z M218.6,132.6l-33.5-96h-57.2v89.7
			H170v6.2h-48.3V30.4h67.8l33.5,96h8.1l31.3-89.7h-9.5l-25.6,75.6l-29.1-87h6.6l22.6,67.5l21.1-62.4h22.7l-35.6,102.2H218.6z
			 M335.9,118.5c-3.1,4.9-7.7,8.8-13.5,11.5c-5.7,2.6-12.4,3.9-20.1,3.9c-6.6,0-13-1.1-18.8-3.1c-6-2.2-11.3-5.4-15.7-9.6l-4.7-4.5
			l14.4-16.5l5.2,4.9c2.4,2.3,5.3,4.2,8.5,5.6c3.1,1.4,7,2.1,11.6,2.1c2.9,0,5.7-0.5,8.3-1.5c2.3-0.9,4-2.1,5.4-3.8
			c1.2-1.4,1.7-3.4,1.7-5.9c0-1.9-0.3-3.5-1-4.7c-0.3-0.7-1.3-1.8-3.6-3.1c-2.5-1.4-6.2-2.8-11-4.2c-5.8-1.7-11.1-3.6-15.7-5.8
			c-5.3-2.5-9.4-5.7-12.6-9.7c-3.4-4.3-5.1-9.7-5.1-16.1c0-5.5,1.5-10.5,4.6-15c2.9-4.3,7-7.7,12.2-10.2c5-2.4,10.8-3.6,17.3-3.6
			c6.7,0,12.7,1,17.8,2.9c5,1.9,9.7,4.8,14,8.4l5.3,4.6l-7,7.7h0.1l-10.6,11.5c-2.1-0.8-4.2-1.6-6.3-2.3l2.4-2.6l12.5-13.7l-0.5-0.4
			c-3.7-3.1-7.8-5.6-12.1-7.3c-4.4-1.7-9.6-2.5-15.5-2.5c-5.5,0-10.5,1-14.6,2.9c-4.1,1.8-7.4,4.6-9.7,8c-2.3,3.4-3.5,7.2-3.5,11.5
			c0,4.9,1.3,9,3.8,12.2c2.5,3.1,6,5.8,10.3,7.9s9.3,3.9,14.8,5.5c5.3,1.5,9.4,3.1,12.4,4.8c2.9,1.6,4.9,3.5,5.9,5.5
			c1.1,2.1,1.6,4.7,1.6,7.6c0,4-1,7.2-3.1,9.8c-2.1,2.5-4.8,4.5-8.1,5.7c-3.3,1.2-6.8,1.9-10.5,1.9c-5.5,0-10.2-0.9-14.1-2.5
			c-3.9-1.7-7.4-4-10.3-6.8l-0.5-0.4l-6.2,7.1l0.4,0.4c3.8,3.6,8.3,6.4,13.5,8.3c5.2,1.8,10.8,2.8,16.8,2.8c6.8,0,12.6-1.1,17.2-3.3
			c4.7-2.2,8.3-5.3,10.9-9.2c2.5-3.9,3.8-8.4,3.8-13.5c0-5.8-1.3-10.5-3.8-14c-2.5-3.4-5.8-6.2-9.8-8.1c-3.9-1.8-8.1-3.4-12.4-4.7
			c-5.8-1.7-10.5-3.4-13.9-5s-5.7-3.4-7.1-5.3c-1.4-1.8-2.1-4.2-2.1-6.8c0-3.1,0.8-5.7,2.5-7.7s4-3.6,6.7-4.6c2.8-1,5.9-1.6,9.2-1.6
			c3.8,0,7.5,0.6,11.1,1.9c1.2,0.4,2.4,0.9,3.6,1.5l-4.4,4.8c-0.4-0.2-0.8-0.3-1.2-0.5c-2.9-1-6-1.6-9-1.6c-2.6,0-4.9,0.4-7,1.2
			c-1.8,0.6-3.1,1.5-4,2.7c-0.3,0.3-1,1.2-1,3.7c0,1.7,0.5,2.6,0.9,3.1c0.4,0.6,1.6,1.8,4.8,3.4c3.1,1.5,7.5,3.1,12.9,4.7
			c4.7,1.3,9.2,3,13.3,5c4.9,2.3,9,5.7,12.1,10c3.4,4.6,5,10.5,5,17.6C340.6,107.9,339,113.6,335.9,118.5z M386.1,123.9
			c-1.5,2.7-3.6,4.9-6.3,6.4c-2.6,1.6-5.6,2.3-8.8,2.3s-6.2-0.8-8.8-2.3c-2.6-1.6-4.7-3.7-6.2-6.4c-1.5-2.7-2.3-5.5-2.3-8.7
			c0-3.1,0.8-6,2.3-8.7c1.5-2.6,3.6-4.7,6.2-6.2s5.5-2.3,8.8-2.3c3.2,0,6.2,0.8,8.8,2.3c2.7,1.5,4.8,3.6,6.3,6.2s2.3,5.5,2.3,8.7
			C388.3,118.4,387.6,121.3,386.1,123.9z M465.4,126l-10.3-14.7l-0.5,0.3c-3,2.1-5.9,3.6-8.6,4.7s-5.8,1.5-9.3,1.5
			c-3.6,0-6.9-0.9-9.9-2.5c-3-1.7-5.5-4.3-7.3-7.8c-1.8-3.4-2.7-7.8-2.9-13.1h45.9l0.1-0.5c0.1-0.7,0.1-1.4,0.1-2.4
			c0.1-1,0.1-2,0.1-3.1c0-6.8-1-12.7-3.1-17.6s-5.3-8.8-9.2-11.6c-4-2.7-8.8-4.1-14.4-4.1c-5.7,0-10.9,1.6-15.3,4.6
			c-4.3,3.1-7.7,7.3-10.2,12.7c-2.5,5.3-3.7,11.6-3.7,18.5c0,7,1.2,13.3,3.6,18.6c2.4,5.3,5.9,9.6,10.4,12.5s10.1,4.4,16.3,4.4
			c3.8,0,7.7-0.7,11.7-2.1c1.3-0.4,2.6-1,3.8-1.5l3.6,5.2c-1.8,0.9-3.6,1.6-5.5,2.3c-4.6,1.5-9.2,2.3-13.7,2.3
			c-7.6,0-14.2-1.8-19.8-5.5s-9.8-8.8-12.7-15.2c-2.8-6.2-4.2-13.3-4.2-21.2c0-7.8,1.4-14.9,4.2-21.1c2.9-6.4,7-11.5,12.3-15.2
			c5.4-3.8,11.8-5.7,18.8-5.7c6.9,0,12.9,1.8,18,5.2c5,3.4,8.8,8.2,11.4,14.3c2.5,5.7,3.7,12.4,3.7,20.1c0,1.2,0,2.4-0.1,3.4
			s-0.1,1.8-0.1,2.5l-0.4,6.4h-44.7l0.2,0.8c0.3,1.2,0.8,2.2,1.2,3.1c1.3,2.5,2.9,4.1,4.8,5.2c2.1,1.2,4.4,1.7,7,1.7
			c2.7,0,5.1-0.3,7.1-1.1c2.3-0.8,4.7-2.1,7.2-3.9l5.6-3.8l13.5,19.6L465.4,126z M416.8,86c0.5-7.5,2.6-13.1,6.1-16.8
			c3.6-3.7,8.1-5.6,13.3-5.6c5.1,0,9.4,1.9,12.6,5.6c3.2,3.6,4.9,9.3,5.2,16.8H416.8z M542.8,127c-2.9,1.8-6.3,3.3-10.3,4.2
			c-3.6,0.9-7.2,1.4-10.4,1.4c-8.5,0-15.5-2.5-20.6-7.2c-5.2-4.9-7.9-11.3-7.9-18.6V70.4h-16V50h16V35.2l21.7-2.6V50h25l-3.9,23.7
			h-6.3l2.9-17.5h-23.9V39.6l-9.2,1.1v15.5h-16v7.9h16v42.6c0,5.6,2,10.3,6,14s9.4,5.5,16.3,5.5c2.7,0,5.7-0.4,9-1.2
			c3.2-0.8,6-1.9,8.3-3.4l0.5-0.3l-4.1-6.7l-0.5,0.3c-1.8,1-3.8,1.8-6,2.3c-2.1,0.6-4.4,0.9-7,0.9c-4.9,0-8.3-1-10.3-3s-3-4.9-3-8.6
			V64.1H523l-1,6.2h-6.6v36.2c0,2,0.4,3.4,1.2,4.2c0.4,0.4,2.2,1.2,5.9,1.2c2,0,3.8-0.2,5.3-0.7c1.7-0.5,3.3-1.1,4.8-1.8l5.7-2.9
			l10.3,16.9L542.8,127z"/>
	</g>
</g>
</svg>
