<?xml version="1.0" encoding="utf-8"?>
<!-- Generator: Adobe Illustrator 23.0.1, SVG Export Plug-In . SVG Version: 6.00 Build 0)  -->
<svg version="1.1" id="Layer_1" xmlns="http://www.w3.org/2000/svg" xmlns:xlink="http://www.w3.org/1999/xlink" x="0px" y="0px"
	 viewBox="0 0 578.3 162.3" style="enable-background:new 0 0 578.3 162.3;" xml:space="preserve">
<style type="text/css">
	.st0{opacity:0.6;enable-background:new    ;}
	.st1{fill:#FFFFFF;}
	.st2{fill:#674ACA;}
</style>
<g class="st0">
	<path class="st1" d="M75.2,126.8V43.6H95c6.7,0,12.1,0.5,16.2,1.7c4.1,1.1,7.6,3.2,10.4,6.2c2.9,3.1,5,7.3,6.1,12.6
		c1.1,5.3,1.8,13,1.8,22.9c0,9.8-1.1,17.8-3.6,23.8c-2.4,6-6,10.2-10.8,12.5c-4.8,2.3-11.6,3.4-20.4,3.4H75.2z M111,110
		c1.9-2.2,3.3-5.2,3.9-9c0.8-3.8,1-9,1-15.8c0-6.6-0.3-11.8-0.9-15.7c-0.6-3.8-1.8-6.9-3.7-9c-1.9-2.3-4.2-3.7-7-4.3
		c-2.8-0.6-6.7-0.9-12-0.9h-4.1v60.1h3.8c5,0,8.8-0.4,11.6-1C106.6,113.5,109,112.1,111,110z"/>
	<path class="st1" d="M141.4,126.8V43.6H190v12h-35.4v23h32.1v11.5h-32.1v24.7h35.8v12H141.4z"/>
	<path class="st1" d="M217,126.8l-18.5-83.2h14l15.7,71.3h2.7l15-71.3h13.6l-17.8,83.2H217z"/>
	<path class="st1" d="M266.2,65.9c0-15.7,9.4-23.4,28.1-23.4c6.6,0,14.1,1.5,22.7,4.5l-2.9,11.6c-8.7-2.7-15.4-4.1-20.4-4.1
		s-8.5,0.8-10.7,2.4c-2.2,1.7-3.3,4.7-3.3,8.9c0,2.9,1.3,5.3,3.7,7.3c2.4,2,6.6,3.7,12.5,5.2c8.9,2.4,15,5.5,18.3,9.2
		c3.3,3.7,5,9.3,5,16.7c0,16-9.6,23.9-28.7,23.9c-6.4,0-14.4-1.4-23.9-4.1l2.7-12.1c0,0.1,1.3,0.5,3.9,1.1
		c8.1,2.2,14.6,3.2,19.1,3.2c4.6,0,7.9-1.1,10.2-3.4c2.3-2.3,3.3-5.2,3.3-8.7c0-3.4-0.9-6.1-2.8-8c-1.9-1.9-5.3-3.6-10.4-5
		c-9.2-2.5-15.8-5.7-19.9-9.4C268.2,78,266.2,72.7,266.2,65.9z"/>
	<path class="st1" d="M400.9,73.4c4.6-5.3,11-7.9,19.1-7.9s14.4,2.4,18.8,7.1c4.5,4.8,6.7,11.8,6.9,21l-0.5,9.4h-37.1
		c0.8,9.2,5.3,13.8,13.8,13.8c5.9,0,12-1,18.6-3.2l2.7,11.1c-2.7,0.9-6.2,1.8-10.6,2.4c-4.3,0.8-7.9,1-10.7,1
		c-18.6,0-27.8-10.4-27.8-31.5C394,86.4,396.3,78.7,400.9,73.4z M420.4,77.3c-3.9,0-7,1.1-8.9,3.4c-2,2.3-3.1,6.2-3.3,11.6h23.4
		C431.6,82.3,427.9,77.3,420.4,77.3z"/>
	<path class="st1" d="M458.8,78.1V66.4h10.3V52l13.1-1.3v15.8H506v11.7h-23.8v25.3c0,4.7,0.5,7.9,1.4,9.8c0.9,1.9,2.8,2.8,5.7,2.8
		c5,0,10.8-0.8,17.6-2.4l2.2,11.3c-7.4,1.9-13.9,2.9-19.7,2.9c-8.1,0-13.5-1.8-16.2-5.5c-2.7-3.7-3.9-9.9-3.9-19.1V78.1H458.8z"/>
	<path class="st1" d="M346.5,117.6L346.5,117.6c0-5.1,4.1-9.2,9.2-9.2h0.1c5.1,0,9.2,4.1,9.2,9.2l0,0c0,5.1-4.1,9.2-9.2,9.2h-0.1
		C350.6,126.8,346.5,122.7,346.5,117.6z"/>
</g>
<g>
	<path class="st2" d="M72.9,123V39.8h19.9c6.7,0,12.1,0.5,16.2,1.7s7.6,3.2,10.4,6.2c2.9,3.1,5,7.3,6.1,12.6s1.8,13,1.8,22.9
		c0,9.8-1.1,17.8-3.6,23.8s-6,10.2-10.8,12.5c-4.8,2.3-11.6,3.4-20.4,3.4H72.9z M108.7,106.2c1.9-2.2,3.3-5.2,3.9-9
		c0.8-3.8,1-9,1-15.8c0-6.6-0.3-11.8-0.9-15.7s-1.8-6.9-3.7-9c-1.9-2.3-4.2-3.7-7-4.3c-2.8-0.6-6.7-0.9-12-0.9H86v60.1h3.8
		c5,0,8.8-0.4,11.6-1C104.3,109.7,106.8,108.3,108.7,106.2z"/>
	<path class="st2" d="M139.1,123V39.8h48.6v12h-35.4v23h32.1v11.5h-32.1V111h35.8v12H139.1z"/>
	<path class="st2" d="M214.7,123l-18.5-83.2h14l15.7,71.3h2.7l15-71.3h13.6L239.4,123H214.7z"/>
	<path class="st2" d="M263.9,62.1c0-15.7,9.4-23.4,28.1-23.4c6.6,0,14.1,1.5,22.7,4.5l-2.9,11.6c-8.7-2.7-15.4-4.1-20.4-4.1
		s-8.5,0.8-10.7,2.4c-2.2,1.7-3.3,4.7-3.3,8.9c0,2.9,1.3,5.3,3.7,7.3c2.4,2,6.6,3.7,12.5,5.2c8.9,2.4,15,5.5,18.3,9.2
		c3.3,3.7,5,9.3,5,16.7c0,16-9.6,23.9-28.7,23.9c-6.4,0-14.4-1.4-23.9-4.1l2.7-12.1c0,0.1,1.3,0.5,3.9,1.1
		c8.1,2.2,14.6,3.2,19.1,3.2c4.6,0,7.9-1.1,10.2-3.4s3.3-5.2,3.3-8.7c0-3.4-0.9-6.1-2.8-8c-1.9-1.9-5.3-3.6-10.4-5
		c-9.2-2.5-15.8-5.7-19.9-9.4C265.9,74.2,263.9,68.9,263.9,62.1z"/>
	<path class="st2" d="M398.6,69.6c4.6-5.3,11-7.9,19.1-7.9c8.1,0,14.4,2.4,18.8,7.1c4.5,4.8,6.7,11.8,6.9,21l-0.5,9.4h-37.1
		c0.8,9.2,5.3,13.8,13.8,13.8c5.9,0,12-1,18.6-3.2l2.7,11.1c-2.7,0.9-6.2,1.8-10.6,2.4c-4.3,0.8-7.9,1-10.7,1
		c-18.6,0-27.8-10.4-27.8-31.5C391.7,82.6,394,74.8,398.6,69.6z M418.1,73.4c-3.9,0-7,1.1-8.9,3.4c-2,2.3-3.1,6.2-3.3,11.6h23.4
		C429.3,78.5,425.6,73.4,418.1,73.4z"/>
	<path class="st2" d="M456.6,74.3V62.6h10.3V48.2L480,47v15.8h23.7v11.7h-23.8v25.3c0,4.7,0.5,7.9,1.4,9.8c0.9,1.9,2.8,2.8,5.7,2.8
		c5,0,10.8-0.8,17.6-2.4l2.2,11.3c-7.4,1.9-13.9,2.9-19.7,2.9c-8.1,0-13.5-1.8-16.2-5.5c-2.7-3.7-3.9-9.9-3.9-19.1V74.3H456.6z"/>
	<path class="st2" d="M344.2,113.8L344.2,113.8c0-5.1,4.1-9.2,9.2-9.2h0.1c5.1,0,9.2,4.1,9.2,9.2l0,0c0,5.1-4.1,9.2-9.2,9.2h-0.1
		C348.3,123,344.2,118.9,344.2,113.8z"/>
</g>
</svg>
