<?xml version="1.0" encoding="utf-8"?>
<!-- Generator: Adobe Illustrator 23.0.1, SVG Export Plug-In . SVG Version: 6.00 Build 0)  -->
<svg version="1.1" id="Layer_1" xmlns="http://www.w3.org/2000/svg" xmlns:xlink="http://www.w3.org/1999/xlink" x="0px" y="0px"
	 viewBox="0 0 352.9 114.5" style="enable-background:new 0 0 352.9 114.5;" xml:space="preserve">
<style type="text/css">
	.st0{opacity:0.85;enable-background:new    ;}
	.st1{fill:#FFFFFF;}
</style>
<g class="st0">
	<path class="st1" d="M6.4,90V24.7H22c5.3,0,9.5,0.4,12.7,1.3s6,2.5,8.2,4.9c2.3,2.4,3.9,5.7,4.8,9.9c0.9,4.2,1.4,10.2,1.4,18
		c0,7.7-0.9,14-2.8,18.7c-1.9,4.7-4.7,8-8.5,9.8s-9.1,2.7-16,2.7H6.4z M34.5,76.8c1.5-1.7,2.6-4.1,3.1-7.1c0.6-3,0.8-7.1,0.8-12.4
		c0-5.2-0.2-9.3-0.7-12.3s-1.4-5.4-2.9-7.1c-1.5-1.8-3.3-2.9-5.5-3.4s-5.3-0.7-9.4-0.7h-3.2V81h3c3.9,0,6.9-0.3,9.1-0.8
		C31.1,79.6,33,78.5,34.5,76.8z"/>
	<path class="st1" d="M58.4,90V24.7h38.2v9.4H68.8v18.1H94v9H68.8v19.4h28.1V90H58.4z"/>
	<path class="st1" d="M117.8,90l-14.5-65.3h11l12.3,56h2.1l11.8-56h10.7l-14,65.3H117.8z"/>
	<path class="st1" d="M156.4,42.2c0-12.3,7.4-18.4,22.1-18.4c5.2,0,11.1,1.2,17.8,3.5l-2.3,9.1c-6.8-2.1-12.1-3.2-16-3.2
		s-6.7,0.6-8.4,1.9c-1.7,1.3-2.6,3.7-2.6,7c0,2.3,1,4.2,2.9,5.7c1.9,1.6,5.2,2.9,9.8,4.1c7,1.9,11.8,4.3,14.4,7.2
		c2.6,2.9,3.9,7.3,3.9,13.1c0,12.6-7.5,18.8-22.5,18.8c-5,0-11.3-1.1-18.8-3.2l2.1-9.5c0,0.1,1,0.4,3.1,0.9c6.4,1.7,11.5,2.5,15,2.5
		c3.6,0,6.2-0.9,8-2.7c1.8-1.8,2.6-4.1,2.6-6.8c0-2.7-0.7-4.8-2.2-6.3s-4.2-2.8-8.2-3.9c-7.2-2-12.4-4.5-15.6-7.4
		C158,51.7,156.4,47.5,156.4,42.2z"/>
	<path class="st1" d="M262.2,48.1c3.6-4.2,8.6-6.2,15-6.2s11.3,1.9,14.8,5.6c3.5,3.8,5.3,9.3,5.4,16.5l-0.4,7.4h-29.1
		c0.6,7.2,4.2,10.8,10.8,10.8c4.6,0,9.4-0.8,14.6-2.5l2.1,8.7c-2.1,0.7-4.9,1.4-8.3,1.9c-3.4,0.6-6.2,0.8-8.4,0.8
		c-14.6,0-21.8-8.2-21.8-24.7C256.8,58.3,258.6,52.2,262.2,48.1z M277.5,51.1c-3.1,0-5.5,0.9-7,2.7c-1.6,1.8-2.4,4.9-2.6,9.1h18.4
		C286.3,55.1,283.4,51.1,277.5,51.1z"/>
	<path class="st1" d="M307.7,51.8v-9.2h8.1V31.3l10.3-1v12.4h18.6v9.2H326v19.9c0,3.7,0.4,6.2,1.1,7.7s2.2,2.2,4.5,2.2
		c3.9,0,8.5-0.6,13.8-1.9l1.7,8.9c-5.8,1.5-10.9,2.3-15.5,2.3c-6.4,0-10.6-1.4-12.7-4.3s-3.1-7.8-3.1-15V51.8H307.7z"/>
	<path class="st1" d="M219.5,82.8L219.5,82.8c0-4,3.2-7.2,7.2-7.2h0.1c4,0,7.2,3.2,7.2,7.2l0,0c0,4-3.2,7.2-7.2,7.2h-0.1
		C222.7,90,219.5,86.8,219.5,82.8z"/>
</g>
</svg>
