<?xml version="1.0" encoding="utf-8"?>
<!-- Generator: Adobe Illustrator 23.0.1, SVG Export Plug-In . SVG Version: 6.00 Build 0)  -->
<svg version="1.1" id="Layer_1" xmlns="http://www.w3.org/2000/svg" xmlns:xlink="http://www.w3.org/1999/xlink" x="0px" y="0px"
	 viewBox="0 0 317.7 100.5" style="enable-background:new 0 0 317.7 100.5;" xml:space="preserve">
<style type="text/css">
	.st0{opacity:0.85;enable-background:new    ;}
	.st1{fill:#606060;}
	.st2{fill:none;stroke:#FFFFFF;stroke-width:10;stroke-linecap:square;stroke-miterlimit:10;}
	.st3{fill:#FFFFFF;}
</style>
<g class="st0">
	<path class="st1" d="M-11.2,294.3V229H4.4c5.3,0,9.5,0.4,12.7,1.3c3.2,0.9,6,2.5,8.2,4.9c2.3,2.4,3.9,5.7,4.8,9.9
		c0.9,4.2,1.4,10.2,1.4,18c0,7.7-0.9,14-2.8,18.7c-1.9,4.7-4.7,8-8.5,9.8c-3.8,1.8-9.1,2.7-16,2.7H-11.2z M16.9,281.1
		c1.5-1.7,2.6-4.1,3.1-7.1c0.6-3,0.8-7.1,0.8-12.4c0-5.2-0.2-9.3-0.7-12.3s-1.4-5.4-2.9-7.1c-1.5-1.8-3.3-2.9-5.5-3.4
		s-5.3-0.7-9.4-0.7h-3.2v47.2h3c3.9,0,6.9-0.3,9.1-0.8C13.5,283.9,15.4,282.8,16.9,281.1z"/>
	<path class="st1" d="M40.8,294.3V229H79v9.4H51.2v18.1h25.2v9H51.2v19.4h28.1v9.4H40.8z"/>
	<path class="st1" d="M100.2,294.3L85.7,229h11l12.3,56h2.1l11.8-56h10.7l-14,65.3H100.2z"/>
	<path class="st1" d="M138.8,246.5c0-12.3,7.4-18.4,22.1-18.4c5.2,0,11.1,1.2,17.8,3.5l-2.3,9.1c-6.8-2.1-12.1-3.2-16-3.2
		s-6.7,0.6-8.4,1.9s-2.6,3.7-2.6,7c0,2.3,1,4.2,2.9,5.7c1.9,1.6,5.2,2.9,9.8,4.1c7,1.9,11.8,4.3,14.4,7.2c2.6,2.9,3.9,7.3,3.9,13.1
		c0,12.6-7.5,18.8-22.5,18.8c-5,0-11.3-1.1-18.8-3.2l2.1-9.5c0,0.1,1,0.4,3.1,0.9c6.4,1.7,11.5,2.5,15,2.5c3.6,0,6.2-0.9,8-2.7
		s2.6-4.1,2.6-6.8c0-2.7-0.7-4.8-2.2-6.3s-4.2-2.8-8.2-3.9c-7.2-2-12.4-4.5-15.6-7.4C140.4,256,138.8,251.8,138.8,246.5z"/>
	<path class="st1" d="M244.6,252.4c3.6-4.2,8.6-6.2,15-6.2s11.3,1.9,14.8,5.6c3.5,3.8,5.3,9.3,5.4,16.5l-0.4,7.4h-29.1
		c0.6,7.2,4.2,10.8,10.8,10.8c4.6,0,9.4-0.8,14.6-2.5l2.1,8.7c-2.1,0.7-4.9,1.4-8.3,1.9c-3.4,0.6-6.2,0.8-8.4,0.8
		c-14.6,0-21.8-8.2-21.8-24.7C239.2,262.6,241,256.5,244.6,252.4z M259.9,255.4c-3.1,0-5.5,0.9-7,2.7c-1.6,1.8-2.4,4.9-2.6,9.1h18.4
		C268.7,259.4,265.8,255.4,259.9,255.4z"/>
	<path class="st1" d="M290.1,256.1v-9.2h8.1v-11.3l10.3-1V247h18.6v9.2h-18.7v19.9c0,3.7,0.4,6.2,1.1,7.7s2.2,2.2,4.5,2.2
		c3.9,0,8.5-0.6,13.8-1.9l1.7,8.9c-5.8,1.5-10.9,2.3-15.5,2.3c-6.4,0-10.6-1.4-12.7-4.3s-3.1-7.8-3.1-15v-19.9H290.1z"/>
	<path class="st1" d="M201.9,287.1L201.9,287.1c0-4,3.2-7.2,7.2-7.2h0.1c4,0,7.2,3.2,7.2,7.2l0,0c0,4-3.2,7.2-7.2,7.2h-0.1
		C205.1,294.3,201.9,291.1,201.9,287.1z"/>
</g>
<polyline class="st2" points="358.5,91.3 358.5,78.2 345.9,78.2 345.9,91.3 372,91.3 372,78.2 "/>
<polyline class="st2" points="345.9,61.3 372,61.3 372,48.2 "/>
<line class="st2" x1="358.5" y1="61.3" x2="358.5" y2="48.2"/>
<path class="st3" d="M59.3,99H3.8c-2,0-3.7-1.6-3.7-3.7V84.8c0-2,1.6-3.7,3.7-3.7h37.5c2,0,3.7-1.6,3.7-3.7V21.7
	c0-2-1.6-3.7-3.7-3.7H3.8c-2,0-3.7-1.6-3.7-3.7V3.7c0-2,1.6-3.7,3.7-3.7h55.5c2,0,3.7,1.6,3.7,3.7v91.7C63,97.4,61.3,99,59.3,99z"/>
<path class="st3" d="M140,99H84.6c-2,0-3.7-1.6-3.7-3.7V3.7c0-2,1.6-3.7,3.7-3.7H140c2,0,3.7,1.6,3.7,3.7v10.6c0,2-1.6,3.7-3.7,3.7
	h-37.4c-2,0-3.7,1.6-3.7,3.7v55.8c0,2,1.6,3.7,3.7,3.7H140c2,0,3.7,1.6,3.7,3.7v10.5C143.7,97.4,142,99,140,99z"/>
<path class="st3" d="M130.2,58.5h-10.7c-2,0-3.7-1.6-3.7-3.7l-0.1-10.5c0-2,1.6-3.7,3.7-3.7h10.7c2,0,3.7,1.6,3.7,3.7v10.5
	C133.9,56.9,132.3,58.5,130.2,58.5z"/>
<path class="st3" d="M313,99h-55.4c-2,0-3.7-1.6-3.7-3.7V84.8c0-2,1.6-3.7,3.7-3.7h37.5c2,0,3.7-1.6,3.7-3.7V42.9
	c0-2,1.6-3.7,3.7-3.7H313c2,0,3.7,1.6,3.7,3.7v52.4C316.7,97.4,315.1,99,313,99z"/>
<path class="st3" d="M268.1,57.6h-10.5c-2,0-3.7-1.6-3.7-3.7V3.7c0-2,1.6-3.7,3.7-3.7H313c2,0,3.7,1.6,3.7,3.7v10.6
	c0,2-1.6,3.7-3.7,3.7h-37.5c-2,0-3.7,1.6-3.7,3.7V54C271.8,56,270.2,57.6,268.1,57.6z"/>
<path class="st3" d="M197.1,98.9l-34.7-45.3c-0.5-0.6-0.8-1.4-0.8-2.2V3.7c0-2,1.6-3.7,3.7-3.7h10.5c2,0,3.7,1.6,3.7,3.7v41.6
	c0,0.8,0.3,1.6,0.8,2.2L197,69.2c1.5,1.9,4.4,1.9,5.9,0l14.5-19.3c0.5-0.6,0.7-1.4,0.7-2.2v-44c0-2,1.6-3.7,3.7-3.7h10.5
	c2,0,3.7,1.6,3.7,3.7v50c0,0.8-0.3,1.6-0.7,2.2l-32.2,43C201.5,100.9,198.6,100.9,197.1,98.9z"/>
</svg>
